<svg width="25" height="25" viewBox="0 0 25 25" fill="none" xmlns="http://www.w3.org/2000/svg">
<path d="M2.06066 23.2739C1.47487 22.6881 1.47487 21.7383 2.06066 21.1525L21.1525 2.06066C21.7383 1.47487 22.6881 1.47487 23.2739 2.06066V2.06066C23.8596 2.64645 23.8596 3.59619 23.2739 4.18198L4.18198 23.2739C3.59619 23.8596 2.64645 23.8596 2.06066 23.2739V23.2739Z" fill="#5F8BAE"/>
<path d="M2.06068 2.06066C2.64646 1.47487 3.59621 1.47487 4.182 2.06066L23.2739 21.1525C23.8597 21.7383 23.8597 22.6881 23.2739 23.2739V23.2739C22.6881 23.8597 21.7383 23.8597 21.1526 23.2739L2.06068 4.18198C1.47489 3.59619 1.47489 2.64645 2.06068 2.06066V2.06066Z" fill="#5F8BAE"/>
</svg>
