<svg width="90" height="90" viewBox="0 0 90 90" fill="none" xmlns="http://www.w3.org/2000/svg">
<rect width="90" height="90" fill="#5f8bae"/>
<path d="M56.0774 53.6057C52.7354 57.2384 49.1374 60.6537 45.5374 64.0531C43.9814 62.2907 42.3474 60.5665 40.7094 58.8381C41.2741 58.4595 41.6988 58.1155 41.8088 57.9209C46.6094 49.4138 51.4481 40.9041 57.0341 32.8922C56.6288 34.0987 56.0821 35.2585 55.7774 36.045C54.6734 38.9112 53.3401 41.6839 51.9854 44.4368C49.2767 49.9397 46.4907 55.4094 45.0194 61.4009C44.7927 62.3227 46.9467 61.4343 47.1267 61.3576C48.3067 60.8557 49.6201 60.1065 50.4008 59.0614C54.2021 53.969 58.2441 49.0812 62.5134 44.3901C60.9234 47.7695 58.6294 50.8309 56.0774 53.6057ZM26.1454 27.32C26.2701 26.8201 26.4974 26.3335 26.6867 25.8536C26.7734 25.8736 26.8601 25.9002 26.9467 25.9202C27.5667 26.4268 28.6907 26.6401 29.4007 27.1266C30.0221 27.5599 30.6067 28.0665 31.1507 28.593C31.8801 29.2996 32.5561 30.0661 33.1974 30.8726C32.8541 31.0793 32.6048 31.2459 32.5428 31.2925C30.2868 32.9922 28.1874 34.8519 26.2374 36.8649C26.2134 36.7649 26.1848 36.6716 26.1621 36.5649C25.4714 33.5255 25.3814 30.3594 26.1454 27.32ZM42.8588 45.5099C44.0154 45.0767 45.5441 43.9835 46.3814 43.1837C45.0828 45.2699 43.8161 47.3762 42.5701 49.5005C42.6661 48.1707 42.7628 46.843 42.8588 45.5099ZM34.1967 50.8643C35.2594 49.5978 36.3214 48.3307 37.3841 47.063C37.2001 49.6012 37.0161 52.1387 36.8327 54.6755C35.8127 53.5464 34.8167 52.4013 33.8654 51.2295C33.9807 51.1115 34.0914 50.9902 34.1967 50.8643ZM37.8827 42.2639C37.0261 43.2837 36.1694 44.3035 35.3134 45.33C35.6661 43.377 36.0194 41.424 36.3734 39.471C36.5481 38.4979 36.7301 37.5381 36.8847 36.5783C37.7254 38.1113 38.5121 39.6843 39.2847 41.2307C38.5687 41.6973 38.0074 42.1172 37.8827 42.2639ZM27.1254 39.851C27.2327 39.731 27.3361 39.6176 27.4307 39.491C28.7614 37.7713 30.1974 36.1717 31.7387 34.6786C31.8254 37.4914 31.1514 40.2975 30.6501 43.0703C30.4734 44.0435 30.2961 45.0233 30.1194 46.0031C28.9267 44.0635 27.9047 42.0239 27.1254 39.851ZM51.3327 32.5323C52.8467 29.3929 54.308 25.9069 56.4807 23.1474C57.858 21.4011 59.9507 23.1341 61.4761 25.0537C59.9607 25.2404 57.5607 27.2267 57.036 27.8865C53.4927 32.339 50.2774 37.0115 47.2448 41.8106C48.5134 38.6779 49.8654 35.5784 51.3327 32.5323ZM64.6621 36.7715C64.5927 37.5047 64.4807 38.2246 64.3387 38.9378C60.4487 42.8304 56.7254 46.8763 53.1667 51.0682C54.596 47.6562 56.2801 44.3368 57.9121 41.0041C59.2594 38.2512 60.5701 35.4651 61.6287 32.5856C62.0914 31.3326 63.0521 29.3196 63.1374 27.5866C63.1694 27.6466 63.1988 27.7066 63.2254 27.7666C64.5541 30.566 64.9527 33.7054 64.6621 36.7715ZM69.8207 27.6333C69.0701 24.4805 67.06 20.3479 63.7027 19.2748C60.3167 18.1883 56.1954 20.5345 53.6767 22.6275C50.7314 25.0804 49.0974 28.6264 47.3868 31.9724C46.4061 33.8921 45.4754 35.8317 44.5788 37.7847C43.3514 35.4918 42.1141 33.1989 40.7994 30.9526C39.0867 28.0332 37.0321 25.1537 34.0727 23.374C30.9421 21.4944 27.7807 22.1942 24.8394 24.0939C21.9607 25.9535 20.6594 28.6197 20.2087 31.9658C18.1401 47.3096 31.9114 57.7816 40.9867 68.3736C40.9307 68.4283 40.8734 68.4823 40.8167 68.5363C39.9094 69.4095 40.4208 69.73 41.4261 69.5907C41.5868 69.5681 41.7521 69.5308 41.9187 69.4835C42.2861 69.9294 42.6468 70.3766 42.9928 70.8245C43.8761 71.9657 49.1541 68.4583 48.5174 67.6351C48.0261 66.9992 47.5181 66.3713 46.9981 65.7501C52.9134 60.1671 59.2094 54.6795 64.1354 48.2254C68.5781 42.4038 71.5807 35.0185 69.8207 27.6333Z" fill="#EDEBF1"/>
</svg>
