<svg width="37" height="36" viewBox="0 0 37 36" fill="red" xmlns="http://www.w3.org/2000/svg">
<path d="M17.7162 18L23.0262 12.69C23.3056 12.409 23.4624 12.0288 23.4624 11.6325C23.4624 11.2363 23.3056 10.8561 23.0262 10.575C22.8868 10.4345 22.7209 10.3229 22.5381 10.2467C22.3553 10.1706 22.1592 10.1313 21.9612 10.1313C21.7632 10.1313 21.5672 10.1706 21.3844 10.2467C21.2016 10.3229 21.0357 10.4345 20.8962 10.575L14.5362 16.935C14.3956 17.0745 14.284 17.2404 14.2079 17.4232C14.1317 17.606 14.0925 17.802 14.0925 18C14.0925 18.1981 14.1317 18.3941 14.2079 18.5769C14.284 18.7597 14.3956 18.9256 14.5362 19.065L20.8962 25.5C21.0364 25.6391 21.2026 25.7491 21.3854 25.8237C21.5681 25.8983 21.7638 25.9362 21.9612 25.935C22.1586 25.9362 22.3543 25.8983 22.5371 25.8237C22.7198 25.7491 22.8861 25.6391 23.0262 25.5C23.3056 25.219 23.4624 24.8388 23.4624 24.4425C23.4624 24.0463 23.3056 23.6661 23.0262 23.385L17.7162 18Z" fill="white"/>
</svg>
