<?xml version="1.0" standalone="no"?>
<!DOCTYPE svg PUBLIC "-//W3C//DTD SVG 20010904//EN"
 "http://www.w3.org/TR/2001/REC-SVG-20010904/DTD/svg10.dtd">
<svg version="1.0" xmlns="http://www.w3.org/2000/svg"
 width="1162.000000pt" height="1135.000000pt" viewBox="0 0 1162.000000 1135.000000"
 preserveAspectRatio="xMidYMid meet">

<g transform="translate(0.000000,1135.000000) scale(0.100000,-0.100000)"
fill="#5f829d" stroke="none">
<path d="M6235 9416 c-163 -38 -250 -94 -353 -227 -132 -170 -168 -270 -159
-444 6 -118 29 -195 91 -317 93 -181 162 -278 271 -380 95 -90 144 -152 282
-354 111 -164 187 -408 204 -662 5 -74 11 -138 15 -143 12 -20 -42 -305 -191
-1004 -34 -161 -40 -261 -25 -397 18 -173 55 -262 171 -419 178 -241 434 -377
689 -367 82 3 102 8 148 33 64 35 96 71 131 145 24 51 26 64 25 190 -1 156
-10 202 -87 450 -84 268 -94 313 -113 480 -12 116 -15 202 -11 340 8 260 23
300 113 300 34 0 47 -5 58 -22 20 -32 34 -121 41 -278 7 -147 33 -418 41 -431
3 -5 9 -60 14 -122 18 -218 108 -388 233 -440 54 -23 241 -50 291 -43 114 17
240 119 297 239 78 167 75 356 -11 666 -13 50 -20 105 -20 166 0 83 3 95 28
136 16 24 39 53 50 63 21 18 24 18 66 2 60 -23 149 -119 170 -183 12 -36 19
-122 26 -343 6 -176 17 -335 26 -395 9 -55 18 -150 20 -211 3 -142 21 -288 45
-378 27 -102 97 -444 110 -545 13 -94 6 -242 -16 -356 -25 -131 -59 -197 -168
-324 -164 -192 -223 -288 -275 -451 -40 -125 -56 -240 -50 -358 5 -84 11 -111
47 -199 22 -55 41 -106 41 -113 0 -35 60 -127 120 -184 113 -106 200 -136 422
-143 266 -10 469 44 633 167 28 20 72 46 98 58 95 42 225 192 336 386 57 100
82 163 140 351 56 183 62 225 68 445 10 384 -39 684 -197 1200 -95 310 -186
518 -347 797 -66 114 -149 296 -253 550 -78 191 -95 244 -129 408 -43 206 -54
399 -55 975 0 448 2 513 17 575 23 92 34 363 18 465 -28 181 -88 293 -198 366
-99 67 -218 106 -343 111 -167 8 -265 -26 -430 -147 -111 -81 -203 -172 -245
-240 -41 -69 -87 -197 -114 -323 -25 -117 -72 -759 -68 -942 2 -138 -12 -182
-72 -222 -62 -41 -139 -28 -204 35 -85 82 -100 142 -102 412 -1 196 -4 225
-29 334 -54 230 -153 471 -254 611 -79 112 -252 313 -339 396 -131 125 -269
207 -412 244 -89 23 -251 28 -326 11z"/>
<path d="M4432 9379 c-77 -13 -196 -55 -277 -97 -137 -71 -316 -284 -369 -440
-54 -157 -121 -247 -289 -389 -199 -167 -350 -240 -550 -265 -93 -12 -95 -11
-148 15 -79 38 -132 94 -185 198 -84 162 -194 253 -355 293 -84 20 -246 21
-323 1 -262 -68 -456 -345 -456 -648 0 -111 19 -185 75 -297 71 -142 141 -219
327 -363 217 -168 243 -241 242 -682 -1 -259 -8 -352 -50 -605 -26 -155 -59
-238 -236 -588 -151 -300 -174 -352 -228 -522 -33 -103 -73 -253 -89 -332 -17
-78 -54 -251 -85 -383 -76 -333 -81 -371 -81 -655 0 -233 1 -251 29 -375 46
-209 103 -359 188 -493 18 -28 56 -91 83 -139 59 -103 190 -240 278 -292 179
-105 523 -157 707 -107 158 43 230 111 335 314 50 98 57 106 310 326 37 33 99
101 136 150 38 50 85 111 105 136 48 60 99 166 125 265 27 99 32 328 10 415
-31 126 -119 249 -220 308 -43 25 -53 27 -157 25 -101 -1 -122 -5 -232 -42
-195 -66 -257 -54 -317 64 -28 54 -30 66 -29 159 1 129 19 198 96 356 85 177
105 232 138 402 25 123 40 170 84 266 29 64 59 135 66 157 7 22 25 72 41 112
16 40 43 128 61 195 61 238 39 466 -80 818 l-66 195 -1 155 c0 149 1 157 27
205 51 98 159 172 315 217 65 19 103 23 228 23 83 0 190 -6 239 -14 155 -25
400 12 596 90 41 17 149 76 239 132 143 89 181 119 303 237 155 149 208 216
268 342 100 207 109 533 21 746 -80 193 -221 329 -405 389 -71 23 -101 26
-236 29 -85 1 -179 -1 -208 -7z"/>
<path d="M9851 7915 c-144 -45 -186 -227 -88 -381 41 -66 62 -142 62 -228 0
-78 0 -79 -35 -105 -56 -42 -81 -73 -109 -131 -68 -146 -23 -422 115 -719 83
-177 181 -240 326 -207 35 8 40 6 70 -25 82 -89 120 -245 119 -494 -1 -185 9
-245 49 -308 78 -123 253 -123 346 0 109 143 151 525 99 898 -8 55 -19 154
-25 220 -14 151 -54 386 -81 484 -43 154 -137 355 -232 498 -61 92 -299 375
-350 417 -93 76 -189 105 -266 81z"/>
<path d="M4730 7290 c-296 -42 -531 -121 -740 -249 -41 -25 -89 -53 -105 -61
-49 -24 -269 -245 -299 -300 -90 -165 -100 -385 -25 -532 36 -70 119 -142 222
-193 127 -62 200 -79 312 -72 145 9 246 53 359 155 176 158 201 193 237 329
20 77 26 87 79 137 62 59 103 76 186 76 69 0 161 -18 205 -40 70 -36 113 -195
91 -336 -21 -131 -82 -214 -209 -282 -87 -46 -168 -62 -358 -73 -264 -14 -421
-47 -560 -116 -168 -85 -338 -240 -446 -406 -104 -161 -156 -317 -166 -497 -9
-169 18 -274 131 -515 110 -233 409 -548 612 -645 146 -70 355 -89 544 -50
176 37 395 102 461 137 111 57 203 142 332 305 33 42 42 48 75 48 45 0 117
-32 130 -57 5 -10 17 -60 26 -112 24 -130 51 -213 98 -301 112 -210 308 -367
515 -414 43 -10 117 -16 186 -16 338 0 571 112 707 340 69 115 82 158 87 294
7 143 -3 191 -64 329 -116 262 -220 348 -507 416 -388 93 -610 293 -701 632
-31 118 -49 267 -41 354 17 182 50 409 73 500 47 187 39 497 -17 678 -25 80
-85 173 -141 219 -70 57 -217 148 -304 189 -95 45 -305 104 -425 119 -114 15
-479 21 -560 10z m438 -2101 c144 -67 163 -88 181 -198 12 -74 -1 -165 -31
-225 -27 -53 -99 -147 -139 -180 -63 -54 -180 -101 -288 -116 -125 -18 -304
24 -360 84 -73 77 -80 304 -15 443 57 119 219 207 439 237 63 8 131 -6 213
-45z"/>
<path d="M1329 7277 c-93 -26 -236 -156 -335 -303 -55 -82 -194 -359 -229
-454 -127 -355 -160 -832 -73 -1070 l31 -85 7 -300 c8 -318 14 -361 61 -429
55 -80 157 -108 243 -66 120 58 238 290 257 505 4 55 13 152 18 215 19 215 53
303 151 383 75 62 143 156 161 220 28 104 8 212 -52 281 -48 55 -102 77 -204
85 l-80 6 -19 59 c-17 51 -18 67 -8 113 15 72 92 200 172 287 110 120 162 212
175 312 22 164 -117 285 -276 241z"/>
</g>
</svg>
