<svg width="50" height="45" viewBox="0 0 50 45" fill="none" xmlns="http://www.w3.org/2000/svg">
<path d="M21.4376 1.78302C21.1232 2.71698 21.1232 6.1132 21.4376 9.25471C21.9091 14.7736 21.9091 14.9434 19.9444 15.9623C18.8442 16.4717 16.6437 18.1698 14.9934 19.783C12.5572 22.2453 11.1427 22.8396 7.13471 23.3491C1.79078 24.0283 -0.802592 25.3868 0.219041 27.1698C0.690564 28.0189 2.41948 28.1038 7.13471 27.7642C11.6142 27.3396 14.7577 27.5943 18.2941 28.5283L23.1665 29.8868L23.5594 36.1698C23.9524 42.1132 24.974 45 26.7815 45C27.253 45 27.4102 42.1132 27.1744 37.1038L26.7815 29.2925L31.7325 26.8302C36.0548 24.7075 37.2336 24.5377 41.2415 25.0472C46.1139 25.6415 50.4362 24.4528 49.9647 22.6698C49.7289 22.0755 46.9784 21.2264 43.3634 20.717C39.9841 20.2075 35.7404 18.934 34.0901 17.9151C32.3612 16.9811 29.8464 15.9623 28.4318 15.6226C25.9956 15.1132 25.9956 15.1132 25.5241 8.83019C25.1312 2.88679 24.1095 0 22.5378 0C22.2234 0 21.6733 0.764153 21.4376 1.78302ZM33 19.4999C32.4647 18.5 30.8428 19.9905 31 20.4999C31.3929 21.7735 27.253 27.1698 24.5025 27.1698C22.7735 27.1698 16.5652 25.6415 15.7007 24.9623C14.9148 24.4528 22.4066 29.8679 25 27.9999C27.3576 26.2169 32.4066 22.0754 35 22.4999C36.7289 22.7547 31.7426 18.7358 33 19.4999Z" fill="#536649"/>
</svg>
