<svg width="50" height="45" viewBox="0 0 50 45" fill="none" xmlns="http://www.w3.org/2000/svg">
<path d="M21.4376 1.78304C21.1232 2.717 21.1232 6.11322 21.4376 9.25473C21.9091 14.7736 21.9091 14.9434 19.9444 15.9623C18.8442 16.4717 16.6438 18.1698 14.9934 19.783C12.5572 22.2453 11.1427 22.8396 7.13471 23.3491C1.79079 24.0283 -0.802588 25.3868 0.219045 27.1698C0.690567 28.0189 2.41948 28.1038 7.13471 27.7642C11.6142 27.3396 14.7577 27.5943 18.2941 28.5283L23.1665 29.8868L23.5594 36.1698C23.9524 42.1132 24.974 45 26.7815 45C27.253 45 27.4102 42.1132 27.1744 37.1038L26.7815 29.2925L31.7325 26.8302C36.0548 24.7076 37.2336 24.5377 41.2415 25.0472C46.1139 25.6415 50.4362 24.4528 49.9647 22.6698C49.7289 22.0755 46.9784 21.2264 43.3634 20.717C39.9841 20.2076 35.7404 18.934 34.0901 17.9151C32.3612 16.9811 29.8464 15.9623 28.4318 15.6227C25.9956 15.1132 25.9956 15.1132 25.5241 8.83021C25.1312 2.88681 24.1095 1.90735e-05 22.5378 1.90735e-05C22.2234 1.90735e-05 21.6733 0.764172 21.4376 1.78304ZM31.5753 19.3585C32.8327 20.1227 34.0115 21.3113 34.1687 21.8208C34.5616 23.0944 27.253 27.1698 24.5025 27.1698C22.7736 27.1698 16.5652 25.6415 15.7007 24.9623C14.9148 24.4528 17.5082 20.9717 20.1016 19.1038C22.4592 17.3208 23.5594 16.9811 26.1528 17.4057C27.8817 17.6604 30.3179 18.5944 31.5753 19.3585Z" fill="#536649"/>
<path d="M22.5255 20.3229C21.3787 21.7167 22.2197 24.5817 23.9781 25.1237C25.66 25.6657 26.6539 25.2011 27.7242 23.1879C29.1768 20.4778 24.5132 17.8451 22.5255 20.3229Z" fill="#536649"/>
</svg>
