<svg width="158" height="158" viewBox="0 0 158 158" fill="none" xmlns="http://www.w3.org/2000/svg">
<circle cx="79" cy="79" r="77.5" stroke="white" stroke-width="3"/>
<circle cx="78.5" cy="79.5" r="65" stroke="white" stroke-width="3"/>
<path d="M74.2614 58.4258C74.203 58.6773 74.0862 60.0319 74.0084 61.4253L73.8916 63.999H74.7479C75.5652 63.999 77.8421 63.1088 78.0951 62.6831C78.348 62.3154 75.176 58 74.6506 58C74.4949 58 74.3392 58.1935 74.2614 58.4258Z" fill="white"/>
<path d="M84.9054 59.8965C83.5237 61.0382 81.636 63.0508 81.2663 63.7861C81.1106 64.0764 81.0522 64.4054 81.13 64.5408C81.1884 64.657 82.0641 65.0246 83.0372 65.3536C85.0805 66.0309 85.4892 65.9729 85.7032 64.9279C86.1508 62.8379 86.5984 60.1287 86.5984 59.5868C86.5984 58.716 86.2481 58.7934 84.9054 59.8965Z" fill="white"/>
<path d="M65.7776 64.5601C65.7776 65.2374 66.5755 68.3337 66.8674 68.7788C67.0231 69.0304 67.276 69.2239 67.4123 69.2239C67.8015 69.2239 70.8373 65.9535 70.8373 65.5277C70.8373 65.1794 69.9616 64.8504 67.7626 64.4053C66.2252 64.0957 65.7776 64.1344 65.7776 64.5601Z" fill="white"/>
<path d="M76.1872 66.7663C74.1828 67.2888 72.1978 68.6628 69.7458 71.2172C67.3522 73.6748 66.1262 76.1712 65.8732 79.0933C65.5034 83.041 67.5079 86.5437 72.0422 89.9496C74.6109 91.8654 77.6662 92.4266 81.9281 91.788C84.9445 91.3235 86.4235 90.5688 88.5446 88.4014C91.4637 85.4213 92.3394 83.4474 92.3394 79.8674C92.3394 77.9902 92.2616 77.4484 91.8724 76.4808C90.7826 73.7329 87.1435 71.5655 83.5822 71.5461C82.3368 71.5461 79.982 72.1848 78.8533 72.8427C77.3354 73.7329 75.798 75.3004 75.0002 76.8098C74.3385 78.0676 74.2607 78.416 74.1828 79.8867C74.1244 80.9123 74.1828 81.8606 74.3385 82.3057C74.6499 83.2539 76.1094 84.7827 77.2965 85.4019C79.7096 86.6211 83.4265 85.2858 84.0687 82.9636C84.4774 81.4929 83.7963 79.8093 82.473 79.0159C81.6751 78.5321 81.0718 78.6482 79.9626 79.4803C79.3788 79.9061 78.8339 80.235 78.7171 80.1963C78.6198 80.1576 78.503 79.6738 78.4641 79.132C78.4057 78.2805 78.4836 78.0096 78.9896 77.3129C80.0793 75.7455 81.3443 75.0294 83.0763 75.0294C86.3067 75.0294 88.4668 77.429 88.3111 80.8349C88.1944 83.5442 86.5986 85.9051 84.0493 87.1436C81.0329 88.6336 79.3593 88.8465 77.1213 88.1111C75.2921 87.5112 74.1634 86.8339 73.0346 85.6728C69.415 81.938 70.135 76.3066 74.7277 72.2041C76.4208 70.6947 76.9462 70.385 79.3982 69.5142C80.6826 69.0691 81.9475 68.5466 82.2394 68.3531L82.7843 68.0048L82.3368 67.6565C81.247 66.7856 77.9776 66.3212 76.1872 66.7663Z" fill="white"/>
<path d="M91.7546 67.2888C90.587 67.5984 89.5555 67.85 89.4777 67.8693C89.3804 67.8693 89.322 68.0242 89.322 68.2177C89.322 68.566 92.0465 71.3526 92.7276 71.701C93.2725 71.9719 93.7201 71.701 94.1871 70.7527C94.6931 69.7658 95.5494 67.4243 95.5494 67.0179C95.5494 66.5341 94.2455 66.6308 91.7546 67.2888Z" fill="white"/>
<path d="M58.847 72.5718C58.7887 72.746 58.8081 72.9976 58.9054 73.1524C59.2752 73.8104 62.0775 76.5776 62.3499 76.5776C62.7002 76.5776 64.9966 73.5394 64.9966 73.075C64.9966 72.6299 64.5295 72.5331 61.5521 72.3977C59.2946 72.2816 58.9638 72.3009 58.847 72.5718Z" fill="white"/>
<path d="M96.5434 76.1326C96.5628 78.2806 96.7575 79.1901 97.205 79.2288C97.6721 79.2869 101 76.8873 101 76.5002C101 76.2293 98.5478 75.2424 97.1661 74.9328L96.5239 74.7973L96.5434 76.1326Z" fill="white"/>
<path d="M59.5874 82.2864C57.1938 83.4475 56.6489 83.8733 57.1938 84.2216C57.5635 84.4345 61.8059 85.673 62.1951 85.673C62.8763 85.673 63.1292 85.1698 63.0903 83.9507C63.0319 81.8994 62.8568 81.0286 62.5065 81.0479C62.3119 81.0479 61.0081 81.6091 59.5874 82.2864Z" fill="white"/>
<path d="M95.0618 85.344C94.7115 85.8858 93.9915 87.9178 93.9915 88.3822C93.9915 88.5757 94.1471 88.7886 94.3417 88.866C94.9645 89.0982 99.382 89.2337 99.5182 89.0014C99.7712 88.5757 96.2683 84.8989 95.6067 84.8989C95.4705 84.8989 95.2369 85.0924 95.0618 85.344Z" fill="white"/>
<path d="M64.9963 88.7886C64.4514 89.8142 63.2449 93.2975 63.2449 93.7813C63.2449 94.6714 64.3541 94.2844 67.4873 92.3299C68.616 91.5945 68.8106 91.0333 68.0905 90.3947C67.857 90.2012 67.3316 89.5626 66.9034 89.0014C65.9693 87.7629 65.5412 87.7049 64.9963 88.7886Z" fill="white"/>
<path d="M89.6131 90.3366C88.9709 90.8398 88.3676 92.117 88.3481 92.9298C88.3481 93.491 88.4649 93.5877 90.4693 94.5553C92.4932 95.5616 93.2133 95.697 93.2133 95.1165C93.2133 94.7488 90.625 90.0657 90.372 89.9883C90.2553 89.9496 89.9244 90.1044 89.6131 90.3366Z" fill="white"/>
<path d="M71.2249 93.7619C71.2249 93.9748 71.3611 94.5166 71.5362 94.9811C71.6919 95.4455 72.0422 96.684 72.2952 97.7483C72.9958 100.67 73.3266 100.728 74.3775 98.0386C75.2532 95.8132 75.4089 95.0972 75.078 94.8262C74.7083 94.536 72.3925 93.5877 71.7697 93.4716C71.3222 93.3942 71.2249 93.4329 71.2249 93.7619Z" fill="white"/>
<path d="M81.8492 93.8973C80.4481 94.1875 79.5918 94.6133 79.5918 95.0197C79.5918 95.1745 79.8253 95.4841 80.0978 95.755C80.3702 96.0066 81.0319 96.7613 81.5573 97.3999C82.6082 98.7158 83.0363 98.9868 83.4255 98.5997C83.7174 98.2901 84.1261 95.5809 84.0288 94.4585C83.9509 93.5489 83.7953 93.5102 81.8492 93.8973Z" fill="white"/>
</svg>
